<?xml version="1.0" encoding="utf-8"?>
<!-- Generator: Adobe Illustrator 16.0.0, SVG Export Plug-In . SVG Version: 6.00 Build 0)  -->
<!DOCTYPE svg PUBLIC "-//W3C//DTD SVG 1.1//EN" "http://www.w3.org/Graphics/SVG/1.1/DTD/svg11.dtd">
<svg version="1.1" id="Layer_1" xmlns="http://www.w3.org/2000/svg" xmlns:xlink="http://www.w3.org/1999/xlink" x="0px" y="0px"
	 width="141.7px" height="141.7px" viewBox="0 0 141.7 141.7" enable-background="new 0 0 141.7 141.7" xml:space="preserve">
<g id="guide_1_">
</g>
<g id="insérer" display="none">
	
		<text transform="matrix(1.083 0 0 1 22.7598 108.0044)" display="inline" fill="#00529C" font-family="'HelveticaNeueLTStd-Roman'" font-size="21.04">INSÉRER</text>
	<path display="inline" fill="#00529C" d="M89.183,44.767H52.517c-3.176,0-5.75,2.574-5.75,5.75c0,3.176,2.574,5.75,5.75,5.75
		h36.667c3.176,0,5.75-2.574,5.75-5.75C94.934,47.341,92.359,44.767,89.183,44.767z"/>
	<path display="inline" fill="#00529C" d="M76.6,68.851V32.184c0-3.176-2.574-5.75-5.75-5.75c-3.176,0-5.75,2.574-5.75,5.75V68.85
		c0,3.176,2.574,5.75,5.75,5.75C74.026,74.6,76.6,72.026,76.6,68.851z"/>
</g>
<g id="connexion" display="none">
	<g display="inline">
		<text transform="matrix(1.083 0 0 1 0.1416 108.2837)" fill="#00529C" font-family="'MyriadPro-Regular'" font-size="25.054">CONNEXION</text>
		<g>
			<path fill="#00529C" d="M80.4,42.9v-8.2c0-4.6-4.3-8.4-9.6-8.4c-5.3,0-9.6,3.8-9.6,8.4v8.2c-5.6,2.1-9.6,7.4-9.6,13.6v2
				c0,8.1,6.7,14.6,15,14.6H75c8.299,0,15-6.5,15-14.6v-2C90,50.3,86,45,80.4,42.9z M65.7,35.1c0-2.5,2.3-4.5,5.2-4.5
				c2.899,0,5.2,2,5.2,4.5V42c-0.301,0-0.7,0-1,0h-8.3c-0.3,0-0.7,0-1,0v-6.9H65.7z M82.299,62.4c0,1.6-1.6,3-3.6,3H63
				c-2,0-3.6-1.3-3.6-3v-9.9c0-1.6,1.6-3,3.6-3h15.7c2,0,3.6,1.3,3.6,3V62.4L82.299,62.4z"/>
			<path fill="#00529C" d="M74,54.6c0-1.7-1.4-3.2-3.202-3.2c-1.8,0-3.2,1.4-3.2,3.2c0,1.1,0.6,2.1,1.5,2.7v5l0,0l0,0l0,0l0,0
				c0,0.6,0.8,1,1.7,1c0.901,0,1.702-0.5,1.702-1l0,0v-5.1C73.5,56.7,74,55.8,74,54.6z"/>
		</g>
	</g>
</g>
<g>
	<g enable-background="new    ">
		<path fill="#00529C" d="M13.54,97.565c-0.456-2.125-2.301-3.199-4.557-3.199c-3.873,0-5.513,2.946-5.513,6.082
			c0,3.43,1.64,6.291,5.536,6.291c2.848,0,4.488-1.852,4.693-4.334h2.165c-0.41,3.744-2.939,6.018-7.04,6.018
			c-5.058,0-7.518-3.451-7.518-7.828c0-4.355,2.688-7.912,7.7-7.912c3.395,0,6.197,1.684,6.698,4.883H13.54z"/>
		<path fill="#00529C" d="M22.972,93.041h2.392l6.356,15.024h-2.392l-1.777-4.524h-6.88l-1.822,4.524h-2.233L22.972,93.041z
			 M21.354,101.857h5.513l-2.711-7.007h-0.046L21.354,101.857z"/>
		<path fill="#00529C" d="M34.911,94.724h-5.422v-1.684h13.008v1.684h-5.422v13.341h-2.164V94.724z"/>
		<path fill="#00529C" d="M44.297,93.041h11.231v1.684h-9.067V99.5h8.452v1.684h-8.452v5.197h9.135v1.684h-11.3V93.041z"/>
		<path fill="#00529C" d="M70.382,106.192c-1.253,1.578-3.304,2.23-5.217,2.23c-4.852,0-7.746-3.662-7.746-7.575
			c0-4.377,2.597-8.165,7.746-8.165c3.554,0,6.378,1.474,6.994,4.988h-2.164c-0.433-2.273-2.415-3.305-4.83-3.305
			c-3.941,0-5.581,3.156-5.581,6.376c0,3.136,1.959,5.997,5.581,5.997c3.349,0,5.354-2.168,5.217-4.902h-5.194v-1.684h7.131v7.912
			h-1.367L70.382,106.192z"/>
		<path fill="#00529C" d="M82.389,92.682c5.17,0,7.791,3.788,7.791,7.871c0,4.082-2.621,7.869-7.791,7.869
			c-5.172,0-7.791-3.787-7.791-7.869C74.598,96.47,77.217,92.682,82.389,92.682z M82.389,106.739c3.963,0,5.627-3.156,5.627-6.186
			c0-3.031-1.664-6.188-5.627-6.188c-3.965,0-5.627,3.156-5.627,6.188C76.762,103.583,78.424,106.739,82.389,106.739z"/>
		<path fill="#00529C" d="M92.823,93.041h7.656c3.053,0,4.943,1.536,4.943,3.935c0,1.811-0.867,3.304-2.826,3.809v0.043
			c1.891,0.336,2.279,1.619,2.438,3.093c0.137,1.473,0.047,3.114,0.957,4.146h-2.414c-0.615-0.611-0.273-2.23-0.592-3.703
			c-0.229-1.474-0.615-2.715-2.711-2.715h-5.285v6.418h-2.166V93.041z M99.499,99.963c2.027,0,3.76-0.484,3.76-2.672
			c0-1.474-0.867-2.567-2.895-2.567h-5.375v5.239H99.499z"/>
		<path fill="#00529C" d="M108.52,93.041h2.164v15.024h-2.164V93.041z"/>
		<path fill="#00529C" d="M114.331,93.041h11.23v1.684h-9.066V99.5h8.451v1.684h-8.451v5.197h9.135v1.684h-11.299V93.041z"/>
		<path fill="#00529C" d="M137.659,97.438c-0.25-2.146-1.799-3.072-4.031-3.072c-1.822,0-3.646,0.611-3.646,2.567
			c0,1.853,2.598,2.126,5.217,2.673c2.598,0.547,5.195,1.389,5.195,4.334c0,3.199-3.395,4.482-6.355,4.482
			c-3.646,0-6.721-1.642-6.721-5.303h2.049c0,2.525,2.279,3.619,4.74,3.619c1.959,0,4.123-0.568,4.123-2.735
			c0-2.062-2.598-2.42-5.195-2.946c-2.596-0.525-5.217-1.221-5.217-3.977c0-3.051,2.939-4.398,5.9-4.398
			c3.326,0,5.855,1.453,5.992,4.756H137.659z"/>
	</g>
	<g>
		<circle fill="#00529C" cx="52.45" cy="32.092" r="5.7"/>
		<circle fill="#00529C" cx="52.45" cy="48.417" r="5.7"/>
		<circle fill="#00529C" cx="52.45" cy="64.667" r="5.7"/>
		<path fill="#00529C" d="M89.2,26.342H67.224c-3.176,0-5.75,2.574-5.75,5.75c0,3.176,2.574,5.75,5.75,5.75H89.2
			c3.176,0,5.75-2.574,5.75-5.75C94.95,28.916,92.375,26.342,89.2,26.342z"/>
		<path fill="#00529C" d="M89.2,42.667H67.224c-3.176,0-5.75,2.574-5.75,5.75s2.574,5.75,5.75,5.75H89.2
			c3.176,0,5.75-2.574,5.75-5.75S92.375,42.667,89.2,42.667z"/>
		<path fill="#00529C" d="M89.2,58.917H67.224c-3.176,0-5.75,2.574-5.75,5.75s2.574,5.75,5.75,5.75H89.2
			c3.176,0,5.75-2.574,5.75-5.75S92.375,58.917,89.2,58.917z"/>
	</g>
</g>
<g id="recherche_1_" display="none">
	<path display="inline" fill="#00529C" d="M93.2,67.3L82.6,56.5l-0.9-0.9c1.7-2.9,2.7-6.2,2.7-9.8c0-10.5-8.5-19-19-19
		s-19,8.5-19,19s8.5,19,19,19c3.8,0,7.3-1.1,10.3-3l0.7,0.8L87,73.4c1.699,1.7,4.398,1.7,6.1,0.101C94.799,71.799,94.9,69,93.2,67.3
		z M54.2,45.8c0-6.2,5-11.2,11.2-11.2c6.2,0,11.2,5,11.2,11.2c0,6.2-5,11.2-11.2,11.2C59.2,57,54.2,52,54.2,45.8z"/>
	
		<text transform="matrix(1.083 0 0 1 0.457 108.4751)" display="inline" fill="#00529C" font-family="'HelveticaNeueLTStd-Roman'" font-size="25.9066">RECHERCHE</text>
	<path display="inline" fill="#00529C" d="M93.2,67.3L82.6,56.5l-0.9-0.9c1.7-2.9,2.7-6.2,2.7-9.8c0-10.5-8.5-19-19-19
		s-19,8.5-19,19s8.5,19,19,19c3.8,0,7.3-1.1,10.3-3l0.7,0.8L87,73.4c1.699,1.7,4.398,1.7,6.1,0.101C94.799,71.799,94.9,69,93.2,67.3
		z M54.2,45.8c0-6.2,5-11.2,11.2-11.2c6.2,0,11.2,5,11.2,11.2c0,6.2-5,11.2-11.2,11.2C59.2,57,54.2,52,54.2,45.8z"/>
</g>
</svg>
