<?xml version="1.0" encoding="utf-8"?>
<!-- Generator: Adobe Illustrator 16.0.0, SVG Export Plug-In . SVG Version: 6.00 Build 0)  -->
<!DOCTYPE svg PUBLIC "-//W3C//DTD SVG 1.1//EN" "http://www.w3.org/Graphics/SVG/1.1/DTD/svg11.dtd">
<svg version="1.1" id="Layer_1" xmlns="http://www.w3.org/2000/svg" xmlns:xlink="http://www.w3.org/1999/xlink" x="0px" y="0px"
	 width="142px" height="142px" viewBox="0 0 142 142" enable-background="new 0 0 142 142" xml:space="preserve">
<g>
	<g enable-background="new    ">
		<path fill="#00529C" d="M24.528,107.508c-0.729,0.336-2.188,0.674-4.057,0.674c-4.328,0-7.586-2.524-7.586-7.176
			c0-4.439,3.258-7.449,8.021-7.449c1.913,0,3.121,0.379,3.645,0.631l-0.479,1.494c-0.752-0.336-1.822-0.59-3.099-0.59
			c-3.6,0-5.992,2.125-5.992,5.852c0,3.472,2.164,5.701,5.9,5.701c1.208,0,2.438-0.229,3.235-0.59L24.528,107.508z"/>
		<path fill="#00529C" d="M39.656,100.732c0,4.882-3.212,7.47-7.132,7.47c-4.055,0-6.901-2.902-6.901-7.195
			c0-4.504,3.03-7.448,7.131-7.448C36.945,93.557,39.656,96.523,39.656,100.732z M27.742,100.963c0,3.029,1.775,5.744,4.896,5.744
			c3.145,0,4.921-2.672,4.921-5.893c0-2.818-1.595-5.767-4.897-5.767C29.382,95.051,27.742,97.85,27.742,100.963z"/>
		<path fill="#00529C" d="M42.234,107.971V93.79h2.164l4.922,7.174c1.139,1.662,2.026,3.156,2.756,4.609l0.046-0.021
			c-0.184-1.895-0.229-3.618-0.229-5.829v-5.935h1.868v14.185h-2.005l-4.875-7.197c-1.071-1.578-2.097-3.197-2.871-4.734
			l-0.068,0.021c0.114,1.789,0.16,3.492,0.16,5.85v6.063L42.234,107.971L42.234,107.971z"/>
		<path fill="#00529C" d="M57.228,107.971V93.79h2.164l4.922,7.174c1.14,1.662,2.026,3.156,2.757,4.609l0.045-0.021
			c-0.184-1.895-0.229-3.618-0.229-5.829v-5.935h1.868v14.185H66.75l-4.875-7.197c-1.071-1.578-2.097-3.197-2.871-4.734
			l-0.068,0.021c0.114,1.789,0.16,3.492,0.16,5.85v6.063L57.228,107.971L57.228,107.971z"/>
		<path fill="#00529C" d="M80.171,101.32h-5.968v5.113h6.651v1.537H72.22V93.79h8.292v1.535H74.2v4.481h5.97L80.171,101.32
			L80.171,101.32z"/>
		<path fill="#00529C" d="M91.837,107.971l-1.959-3.137c-0.797-1.199-1.299-1.979-1.777-2.797h-0.045
			c-0.433,0.818-0.865,1.578-1.662,2.816l-1.846,3.115h-2.279l4.693-7.177l-4.51-7.006h2.301l2.027,3.323
			c0.568,0.927,1.002,1.642,1.412,2.398h0.066c0.434-0.842,0.819-1.494,1.391-2.398l2.096-3.323h2.279l-4.67,6.899l4.781,7.281h-2.3
			L91.837,107.971L91.837,107.971z"/>
		<path fill="#00529C" d="M98.425,93.79v14.183h-1.982V93.79H98.425z"/>
		<path fill="#00529C" d="M115.011,100.732c0,4.882-3.213,7.47-7.131,7.47c-4.055,0-6.902-2.902-6.902-7.195
			c0-4.504,3.029-7.448,7.131-7.448C112.3,93.557,115.011,96.523,115.011,100.732z M103.097,100.963
			c0,3.029,1.775,5.744,4.896,5.744c3.145,0,4.922-2.672,4.922-5.893c0-2.818-1.596-5.767-4.898-5.767
			C104.736,95.051,103.097,97.85,103.097,100.963z"/>
		<path fill="#00529C" d="M117.588,107.971V93.79h2.164l4.921,7.174c1.139,1.662,2.027,3.156,2.756,4.609l0.047-0.021
			c-0.184-1.895-0.229-3.618-0.229-5.829v-5.935h1.867v14.185h-2.004l-4.875-7.197c-1.07-1.578-2.098-3.197-2.871-4.734
			l-0.068,0.021c0.113,1.789,0.16,3.492,0.16,5.85v6.063L117.588,107.971L117.588,107.971z"/>
	</g>
	<g>
		<path fill="#00529C" d="M94.69,35.948c-0.163-0.636-0.375-1.252-0.631-1.846c-1.271-2.967-3.638-5.353-6.59-6.648
			c-1.184-0.518-2.457-0.861-3.796-0.997c-0.429-0.043-0.862-0.065-1.304-0.065H59.714c-0.432,0-0.854,0.022-1.273,0.064
			c-0.146,0.014-0.287,0.043-0.434,0.063c-0.27,0.036-0.539,0.07-0.802,0.123c-0.177,0.035-0.349,0.085-0.521,0.128
			c-0.225,0.055-0.45,0.105-0.67,0.172c-0.19,0.058-0.375,0.13-0.562,0.196c-0.194,0.069-0.391,0.134-0.578,0.212
			c-0.199,0.082-0.392,0.176-0.583,0.268c-0.167,0.079-0.336,0.154-0.499,0.24c-0.205,0.108-0.402,0.228-0.603,0.346
			c-0.14,0.084-0.281,0.165-0.418,0.254c-0.208,0.136-0.408,0.282-0.606,0.43c-0.115,0.085-0.232,0.168-0.345,0.257
			c-0.208,0.166-0.407,0.34-0.604,0.518c-0.092,0.083-0.186,0.163-0.273,0.249c-0.205,0.196-0.4,0.4-0.595,0.61
			c-0.068,0.076-0.14,0.15-0.207,0.228c-0.199,0.228-0.388,0.463-0.57,0.704c-0.051,0.067-0.102,0.133-0.149,0.201
			c-0.188,0.259-0.365,0.525-0.534,0.798c-0.034,0.056-0.067,0.111-0.103,0.167c-0.173,0.29-0.334,0.587-0.483,0.891
			c-0.021,0.043-0.042,0.087-0.063,0.131c-0.152,0.32-0.293,0.646-0.419,0.98c-0.013,0.031-0.021,0.062-0.034,0.092
			c-0.129,0.348-0.242,0.702-0.343,1.063c-0.005,0.019-0.009,0.038-0.014,0.057c-0.1,0.374-0.184,0.753-0.25,1.14
			c-0.001,0.007-0.002,0.014-0.003,0.021c-0.067,0.396-0.116,0.798-0.146,1.206c-0.017,0.155-0.048,0.304-0.048,0.463v0.455
			c0,0.002,0,0.004,0,0.006v0.06v0.218v0.741c0,0,0,1.435,0,1.75s0.581,2.774,4.646,2.774c4.063,0,4.645-2.201,4.645-2.774
			c0-0.573,0-1.75,0-1.75V40.03c0-0.003,0.001-0.006,0.001-0.01v-0.836v-0.521c0-0.003-0.001-0.006-0.001-0.01v-2.97h29.544v29.543
			H56.271v-2.97c0-0.003,0.001-0.006,0.001-0.01v-0.521v-0.836c0-0.003-0.001-0.006-0.001-0.01v-0.113v-1.75
			c0,0-0.579-2.774-4.645-2.774c-4.066,0-4.646,2.774-4.646,2.774v1.75v0.741v0.218v0.06c0,0.002,0,0.004,0,0.006v0.455
			c0,0.159,0.031,0.308,0.048,0.463c0.028,0.408,0.077,0.81,0.146,1.206c0.001,0.007,0.002,0.014,0.003,0.021
			c0.065,0.387,0.149,0.766,0.25,1.14c0.005,0.019,0.009,0.038,0.014,0.057c0.101,0.362,0.214,0.716,0.343,1.063
			c0.012,0.031,0.021,0.062,0.033,0.092c0.126,0.334,0.269,0.66,0.42,0.98c0.021,0.044,0.042,0.087,0.063,0.131
			c0.149,0.304,0.311,0.601,0.483,0.891c0.032,0.056,0.066,0.112,0.103,0.167c0.169,0.273,0.346,0.539,0.534,0.798
			c0.049,0.068,0.1,0.134,0.148,0.201c0.185,0.241,0.372,0.477,0.571,0.704c0.067,0.077,0.139,0.152,0.207,0.228
			c0.192,0.209,0.389,0.414,0.595,0.61c0.09,0.085,0.184,0.166,0.273,0.249c0.197,0.177,0.396,0.353,0.604,0.519
			c0.112,0.088,0.229,0.172,0.346,0.256c0.199,0.146,0.398,0.295,0.606,0.431c0.137,0.09,0.278,0.172,0.418,0.256
			c0.198,0.117,0.396,0.235,0.603,0.349c0.163,0.086,0.332,0.157,0.499,0.237c0.191,0.095,0.385,0.188,0.583,0.271
			c0.188,0.078,0.384,0.145,0.577,0.211c0.188,0.063,0.371,0.141,0.563,0.197c0.22,0.063,0.445,0.114,0.67,0.172
			c0.173,0.043,0.344,0.092,0.521,0.127c0.264,0.055,0.531,0.086,0.802,0.123c0.146,0.021,0.287,0.049,0.434,0.063
			c0.419,0.043,0.844,0.063,1.273,0.063h22.66c0.438,0,0.873-0.021,1.301-0.063c5.018-0.512,9.158-3.938,10.734-8.554
			c0.104-0.308,0.197-0.621,0.279-0.938c0.262-1.017,0.416-2.077,0.416-3.176l0,0v-22.66l0,0
			C95.106,38.025,94.951,36.965,94.69,35.948z"/>
		<g>
			<path fill="#00529C" d="M76.563,50.464c0,1.91-1.548,3.458-3.457,3.458H50.354c-1.909,0-3.458-1.548-3.458-3.458l0,0
				c0-1.909,1.549-3.458,3.458-3.458h22.751C75.016,47.006,76.563,48.555,76.563,50.464L76.563,50.464z"/>
			<path fill="#00529C" d="M75.805,51.894c-1.014,1.013-2.652,1.013-3.668-0.001l-6.584-6.584c-1.013-1.013-1.013-2.654,0-3.667l0,0
				c1.013-1.013,2.655-1.013,3.667,0l6.583,6.584C76.817,49.239,76.817,50.881,75.805,51.894L75.805,51.894z"/>
			<path fill="#00529C" d="M75.805,49.015c-1.014-1.013-2.652-1.013-3.668,0.001L65.553,55.6c-1.013,1.013-1.013,2.654,0,3.667l0,0
				c1.013,1.013,2.655,1.013,3.667,0l6.583-6.584C76.817,51.67,76.817,50.028,75.805,49.015L75.805,49.015z"/>
		</g>
	</g>
</g>
</svg>
