<?xml version="1.0" encoding="utf-8"?>
<!-- Generator: Adobe Illustrator 16.0.0, SVG Export Plug-In . SVG Version: 6.00 Build 0)  -->
<!DOCTYPE svg PUBLIC "-//W3C//DTD SVG 1.1//EN" "http://www.w3.org/Graphics/SVG/1.1/DTD/svg11.dtd">
<svg version="1.1" id="Layer_1" xmlns="http://www.w3.org/2000/svg" xmlns:xlink="http://www.w3.org/1999/xlink" x="0px" y="0px"
	 width="142px" height="142px" viewBox="-20.125 -0.15 142 142" enable-background="new -20.125 -0.15 142 142"
	 xml:space="preserve">
<g>
	<g enable-background="new    ">
		<path fill="#00529C" d="M4.051,92.98h2.164v15.024H4.051V92.98z"/>
		<path fill="#00529C" d="M9.839,92.98h2.302l8.564,12.183h0.046V92.98h2.05v15.024h-2.368l-8.497-12.059H11.89v12.059H9.839V92.98z
			"/>
		<path fill="#00529C" d="M35.721,97.377c-0.25-2.146-1.799-3.072-4.031-3.072c-1.822,0-3.646,0.611-3.646,2.566
			c0,1.854,2.598,2.127,5.218,2.674c2.597,0.547,5.193,1.389,5.193,4.334c0,3.199-3.395,4.481-6.355,4.481
			c-3.646,0-6.722-1.642-6.722-5.303h2.051c0,2.524,2.278,3.618,4.739,3.618c1.959,0,4.123-0.567,4.123-2.734
			c0-2.063-2.598-2.42-5.193-2.945c-2.599-0.525-5.218-1.222-5.218-3.978c0-3.052,2.938-4.397,5.9-4.397
			c3.325,0,5.854,1.453,5.991,4.756H35.721z"/>
		<path fill="#00529C" d="M41.078,92.98H52.31v1.685h-9.067v4.775h8.452v1.684h-8.452v5.197h9.137v1.684H41.078V92.98z
			 M46.842,88.898h2.483l-2.983,3.009h-1.459L46.842,88.898z"/>
		<path fill="#00529C" d="M55.002,92.98h7.653c3.054,0,4.943,1.536,4.943,3.935c0,1.812-0.865,3.305-2.824,3.81v0.043
			c1.892,0.336,2.276,1.618,2.438,3.093c0.137,1.473,0.045,3.114,0.957,4.146h-2.416c-0.614-0.611-0.272-2.23-0.592-3.703
			c-0.229-1.475-0.615-2.715-2.712-2.715h-5.284v6.418h-2.164V92.98z M61.676,99.903c2.027,0,3.76-0.484,3.76-2.672
			c0-1.475-0.865-2.566-2.895-2.566h-5.375v5.238H61.676z"/>
		<path fill="#00529C" d="M70.609,92.98h11.23v1.685h-9.066v4.775h8.452v1.684h-8.452v5.197h9.136v1.684h-11.3V92.98z"/>
		<path fill="#00529C" d="M84.531,92.98h7.655c3.053,0,4.942,1.536,4.942,3.935c0,1.812-0.865,3.305-2.824,3.81v0.043
			c1.891,0.336,2.277,1.618,2.438,3.093c0.137,1.473,0.047,3.114,0.957,4.146h-2.415c-0.614-0.611-0.272-2.23-0.592-3.703
			c-0.229-1.475-0.614-2.715-2.711-2.715h-5.285v6.418h-2.165V92.98z M91.207,99.903c2.027,0,3.76-0.484,3.76-2.672
			c0-1.475-0.866-2.566-2.895-2.566h-5.376v5.238H91.207z"/>
	</g>
	<g>
		<path fill="#00529C" d="M69.209,44.767H32.543c-3.178,0-5.751,2.574-5.751,5.75c0,3.176,2.573,5.75,5.751,5.75h36.666
			c3.176,0,5.75-2.574,5.75-5.75C74.959,47.341,72.385,44.767,69.209,44.767z"/>
		<path fill="#00529C" d="M56.625,68.851V32.184c0-3.176-2.574-5.75-5.75-5.75c-3.177,0-5.75,2.574-5.75,5.75V68.85
			c0,3.176,2.573,5.75,5.75,5.75C54.051,74.6,56.625,72.026,56.625,68.851z"/>
	</g>
</g>
</svg>
