<?xml version="1.0" encoding="utf-8"?>
<!-- Generator: Adobe Illustrator 16.0.0, SVG Export Plug-In . SVG Version: 6.00 Build 0)  -->
<!DOCTYPE svg PUBLIC "-//W3C//DTD SVG 1.1//EN" "http://www.w3.org/Graphics/SVG/1.1/DTD/svg11.dtd">
<svg version="1.1" id="Layer_1" xmlns="http://www.w3.org/2000/svg" xmlns:xlink="http://www.w3.org/1999/xlink" x="0px" y="0px"
	 width="576.546px" height="144px" viewBox="129.795 202.14 576.546 144" enable-background="new 129.795 202.14 576.546 144"
	 xml:space="preserve">
<g>
	<g>
		<path fill="#004994" d="M135.938,219.778c0-5.119,3.915-9.034,9.033-9.034c5.119,0,9.183,3.915,9.183,9.034v35.378
			c5.872-8.28,14.152-14.904,27.1-14.904c18.668,0,36.885,14.752,36.885,41.25v0.302c0,26.346-18.066,41.25-36.885,41.25
			c-13.249,0-21.528-6.625-27.1-14.002v4.064c0,4.969-4.064,9.033-9.183,9.033c-4.968,0-9.033-4.064-9.033-9.033V219.778z
			 M203.219,281.804v-0.302c0-15.355-10.388-25.442-22.732-25.442c-12.345,0-23.185,10.238-23.185,25.442v0.302
			c0,15.205,10.839,25.443,23.185,25.443C192.982,307.248,203.219,297.46,203.219,281.804z"/>
		<path fill="#004994" d="M231.68,298.515v-0.303c0-17.163,13.398-25.593,32.819-25.593c8.882,0,15.206,1.355,21.378,3.314v-1.958
			c0-11.291-6.925-17.312-19.722-17.312c-6.925,0-12.646,1.204-17.614,3.161c-1.055,0.301-1.958,0.452-2.861,0.452
			c-4.215,0-7.678-3.313-7.678-7.527c0-3.313,2.259-6.172,4.969-7.227c7.527-2.86,15.206-4.667,25.593-4.667
			c11.894,0,20.776,3.163,26.347,8.883c5.872,5.72,8.582,14.151,8.582,24.539v39.145c0,4.967-3.916,8.73-8.883,8.73
			c-5.269,0-8.881-3.611-8.881-7.678v-3.01c-5.42,6.471-13.701,11.592-25.895,11.592C244.928,323.054,231.68,314.474,231.68,298.515
			z M284.379,292.793v-5.419c-4.667-1.806-10.839-3.161-18.066-3.161c-11.742,0-18.667,4.968-18.667,13.248v0.3
			c0,7.678,6.774,12.045,15.506,12.045C275.195,309.806,284.379,302.88,284.379,292.793z"/>
		<path fill="#004994" d="M321.25,314.023v-0.305c0-3.461,1.204-5.721,4.064-8.73l42.305-48.176h-37.487
			c-4.215,0-7.527-3.312-7.527-7.376c0-4.215,3.313-7.527,7.527-7.527h52.392c4.969,0,8.733,3.011,8.733,7.227v0.45
			c0,3.463-1.205,5.722-3.915,8.733l-42.455,48.177h39.142c4.216,0,7.527,3.313,7.527,7.527c0,4.063-3.311,7.377-7.527,7.377
			h-53.897C325.013,321.398,321.25,318.238,321.25,314.023z"/>
		<path fill="#004994" d="M404.349,298.515v-0.303c0-17.163,13.398-25.593,32.818-25.593c8.883,0,15.205,1.355,21.379,3.314v-1.958
			c0-11.291-6.926-17.312-19.723-17.312c-6.926,0-12.646,1.204-17.615,3.161c-1.053,0.301-1.957,0.452-2.857,0.452
			c-4.217,0-7.682-3.313-7.682-7.527c0-3.313,2.262-6.172,4.971-7.227c7.525-2.86,15.205-4.667,25.592-4.667
			c11.895,0,20.777,3.163,26.348,8.883c5.871,5.72,8.582,14.151,8.582,24.539v39.145c0,4.967-3.916,8.73-8.883,8.73
			c-5.27,0-8.883-3.611-8.883-7.678v-3.01c-5.42,6.471-13.699,11.592-25.896,11.592
			C417.597,323.054,404.349,314.474,404.349,298.515z M457.048,292.793v-5.419c-4.668-1.806-10.84-3.161-18.064-3.161
			c-11.744,0-18.67,4.968-18.67,13.248v0.3c0,7.678,6.775,12.045,15.506,12.045C447.865,309.806,457.048,302.88,457.048,292.793z"/>
		<path fill="#004994" d="M497.984,250.188c0-5.119,3.914-9.184,9.031-9.184c5.119,0,9.186,4.064,9.186,9.184v8.13
			c4.215-9.938,12.045-17.465,20.023-17.465c5.723,0,9.033,3.764,9.033,9.034c0,4.817-3.162,7.979-7.229,8.731
			c-12.945,2.257-21.83,12.195-21.83,31.014v23.487c0,4.967-4.064,9.031-9.184,9.031c-4.969,0-9.033-3.912-9.033-9.031v-62.931
			H497.984z"/>
	</g>
	
		<radialGradient id="SVGID_1_" cx="897.3706" cy="-656.4595" r="69.8525" gradientTransform="matrix(1.4678 -0.0084 -0.0011 -0.1819 -726.1993 217.5291)" gradientUnits="userSpaceOnUse">
		<stop  offset="0" style="stop-color:#000000;stop-opacity:0.5"/>
		<stop  offset="0.0874" style="stop-color:#0D0D0D;stop-opacity:0.4555"/>
		<stop  offset="0.2479" style="stop-color:#2E2E2E;stop-opacity:0.3738"/>
		<stop  offset="0.4638" style="stop-color:#646464;stop-opacity:0.2639"/>
		<stop  offset="0.7235" style="stop-color:#AEAEAE;stop-opacity:0.1317"/>
		<stop  offset="0.9821" style="stop-color:#FFFFFF;stop-opacity:0"/>
	</radialGradient>
	<path opacity="0.8" fill="url(#SVGID_1_)" enable-background="new    " d="M700.199,324.691
		c0.041,7.174-48.021,13.252-107.35,13.592c-59.324,0.336-107.455-5.203-107.494-12.365c-0.043-7.174,48.023-13.254,107.346-13.594
		C652.027,311.99,700.156,317.527,700.199,324.691z"/>
	<g>
		<g>
			<g>
				<path fill="#00539B" d="M545.765,298.656l18.756,15.672c1.051,0.875,3.014,1.773,4.359,1.998l59.146,9.184
					c1.35,0.225,3.354-1.135,3.578-2.482l9.381-60.435c0.223-1.352-0.695-2.637-2.045-2.861l-59.002-10.101
					c-1.352-0.225-3.498-0.007-4.775,0.485l-22.811,8.779c-1.273,0.492-2.502,1.999-2.727,3.345l-5.031,32.423
					C544.371,296.01,544.716,297.775,545.765,298.656z M560,289.694c2.348,0.39,3.936,2.611,3.545,4.958
					c-0.389,2.341-2.605,3.932-4.953,3.542c-2.35-0.39-3.938-2.605-3.549-4.956C555.433,290.89,557.648,289.302,560,289.694z"/>
			</g>
			<g>
				<path fill="#ED6B26" d="M545.765,298.656l18.756,15.672c1.051,0.875,3.014,1.773,4.359,1.998l59.146,9.184
					c1.35,0.225,3.354-1.135,3.578-2.482l9.381-60.435c0.223-1.352-0.695-2.637-2.045-2.861l-59.002-10.101
					c-1.352-0.225-3.498-0.007-4.775,0.485l-22.811,8.779c-1.273,0.492-2.502,1.999-2.727,3.345l-5.031,32.423
					C544.371,296.01,544.716,297.775,545.765,298.656z M560,289.694c2.348,0.39,3.936,2.611,3.545,4.958
					c-0.389,2.341-2.605,3.932-4.953,3.542c-2.35-0.39-3.938-2.605-3.549-4.956C555.433,290.89,557.648,289.302,560,289.694z"/>
			</g>
		</g>
		<g opacity="0.3">
			<g>
				<path fill="#00539B" d="M638.941,259.73l-59.002-10.101c-1.352-0.225-3.498-0.007-4.773,0.485l-22.813,8.779
					c-1.273,0.492-2.5,1.999-2.727,3.345l-5.029,32.423c-0.227,1.349,0.117,3.113,1.168,3.995l18.756,15.672
					c1.051,0.875,3.014,1.771,4.359,1.998l59.146,9.184c1.35,0.225,3.354-1.137,3.578-2.482l9.381-60.436
					C641.208,261.24,640.292,259.955,638.941,259.73z M559.388,298.667c-2.609,0-4.725-2.116-4.725-4.725
					c0-2.61,2.115-4.726,4.725-4.726c2.607,0,4.727,2.115,4.727,4.726C564.115,296.552,561.998,298.667,559.388,298.667z"/>
			</g>
			<g>
				
					<radialGradient id="SVGID_2_" cx="942.7495" cy="80.2788" r="43.4237" gradientTransform="matrix(1 0 0 -1 -349.9746 367.8154)" gradientUnits="userSpaceOnUse">
					<stop  offset="0" style="stop-color:#FFFFFF"/>
					<stop  offset="0.1353" style="stop-color:#FFFCFB"/>
					<stop  offset="0.2713" style="stop-color:#FEF4EF"/>
					<stop  offset="0.4077" style="stop-color:#FCE6DB"/>
					<stop  offset="0.5444" style="stop-color:#FAD3BE"/>
					<stop  offset="0.6815" style="stop-color:#F7BA9A"/>
					<stop  offset="0.8188" style="stop-color:#F39C6D"/>
					<stop  offset="0.9539" style="stop-color:#EF7839"/>
					<stop  offset="1" style="stop-color:#ED6B26"/>
				</radialGradient>
				<path fill="url(#SVGID_2_)" d="M638.941,259.73l-59.002-10.101c-1.352-0.225-3.498-0.007-4.773,0.485l-22.813,8.779
					c-1.273,0.492-2.5,1.999-2.727,3.345l-5.029,32.423c-0.227,1.349,0.117,3.113,1.168,3.995l18.756,15.672
					c1.051,0.875,3.014,1.771,4.359,1.998l59.146,9.184c1.35,0.225,3.354-1.137,3.578-2.482l9.381-60.436
					C641.208,261.24,640.292,259.955,638.941,259.73z M559.388,298.667c-2.609,0-4.725-2.116-4.725-4.725
					c0-2.61,2.115-4.726,4.725-4.726c2.607,0,4.727,2.115,4.727,4.726C564.115,296.552,561.998,298.667,559.388,298.667z"/>
			</g>
		</g>
		
			<radialGradient id="SVGID_3_" cx="881.6177" cy="-142.3823" r="5.4421" gradientTransform="matrix(-0.9106 -0.4133 -0.4133 0.9106 1303.248 787.9695)" gradientUnits="userSpaceOnUse">
			<stop  offset="0.6182" style="stop-color:#A3A5A5"/>
			<stop  offset="0.8485" style="stop-color:#CFCFCF"/>
			<stop  offset="1" style="stop-color:#797D7F"/>
		</radialGradient>
		<path fill="url(#SVGID_3_)" d="M558.404,299.31c2.963,0.492,5.766-1.51,6.258-4.477c0.49-2.962-1.516-5.767-4.48-6.258
			c-2.961-0.492-5.766,1.514-6.256,4.481C553.433,296.017,555.441,298.822,558.404,299.31z M560,289.694
			c2.348,0.39,3.936,2.611,3.545,4.958c-0.389,2.341-2.605,3.932-4.953,3.542c-2.35-0.39-3.938-2.605-3.549-4.956
			C555.433,290.89,557.648,289.302,560,289.694z"/>
		
			<linearGradient id="SVGID_4_" gradientUnits="userSpaceOnUse" x1="985.98" y1="-112.0894" x2="985.9489" y2="-106.4348" gradientTransform="matrix(-0.9865 -0.1635 -0.1635 0.9865 1514.4369 560.7277)">
			<stop  offset="0.0111" style="stop-color:#EDEDED"/>
			<stop  offset="0.9091" style="stop-color:#4A4D4F"/>
		</linearGradient>
		<path fill="url(#SVGID_4_)" d="M560.082,289.202c-2.35-0.387-4.566,1.201-4.959,3.547c-0.014,0.081-0.02,0.167-0.025,0.248
			c0.498-2.211,2.637-3.679,4.902-3.303c2.264,0.375,3.816,2.451,3.572,4.705c0.02-0.078,0.041-0.155,0.053-0.239
			C564.013,291.813,562.425,289.592,560.082,289.202z"/>
		<path fill="#00539B" d="M557.574,292.608c-0.066-0.317-0.346-1.075-1.49-1.535c-0.615,0.56-0.842,1.42-0.842,1.42
			c0.611,0.162,0.725,0.388,0.74,0.452c0.049,0.229-0.486,1.063-2.102,1.777c-0.902,0.397-3.488,0.988-6.91,0.988
			c-2.205,0-4.369-0.251-6.354-0.731c0.471-0.143,0.945-0.286,1.424-0.436c0.432-0.13,0.957-0.255,1.48-0.382
			c0.424-0.1,0.836-0.201,1.211-0.304c0.002-0.131,0.229-1.675,0.252-1.761c-0.064-0.016-0.131-0.023-0.197-0.002
			c-0.381,0.106-0.809,0.222-1.246,0.338c-0.695,0.188-1.408,0.38-2.004,0.564c-1.311,0.403-2.549,0.783-3.758,1.088
			c-0.424-0.16-0.98-0.367-1.645-0.612c-5.105-1.888-18.668-6.904-20.449-10.667c-0.188-0.394-0.684-0.573-1.092-0.381
			c-0.402,0.199-0.57,0.688-0.379,1.079c1.809,3.817,13.219,8.256,19.35,10.641c0.361,0.143,0.707,0.276,1.021,0.399
			c-5.227,0.086-15.621-1.603-18.188-4.208c-0.303-0.313-0.84-0.319-1.158-0.01c-0.152,0.155-0.238,0.358-0.238,0.577
			c-0.002,0.216,0.082,0.421,0.232,0.573c3.111,3.157,12.963,4.628,18.643,4.628c1.564,0,2.871-0.108,3.793-0.313
			c1.332,0.496,2.791,0.882,4.338,1.149c1.578,0.271,3.238,0.408,4.938,0.408c3.463,0,6.309-0.571,7.592-1.137
			c1.752-0.77,2.867-1.837,3.051-2.93C557.626,293.045,557.621,292.819,557.574,292.608z"/>
	</g>
	<g>
		<path fill="#FFFFFF" d="M580.972,264.07c0.295-1.9,2.035-3.222,3.994-2.919c1.957,0.306,3.271,2.104,2.979,4.004l-5.547,35.72
			c-0.303,1.959-2.09,3.213-4.049,2.912c-1.902-0.295-3.225-2.033-2.924-3.994L580.972,264.07z"/>
		<path fill="#FFFFFF" d="M618.279,306.447c-0.295,1.898-2.09,3.215-4.051,2.91c-1.902-0.297-3.281-2.041-2.979-4.002l0.242-1.559
			c-2.404,2.58-5.615,4.617-10.336,3.883c-6.857-1.063-10.115-6.291-9.016-13.378l2.514-16.187c0.303-1.96,2.1-3.273,3.998-2.98
			c1.961,0.306,3.275,2.105,2.971,4.063l-2.188,14.113c-0.736,4.725,1.215,7.742,5.359,8.385c4.033,0.629,7.287-1.699,8.021-6.421
			l2.174-14c0.305-1.958,2.1-3.275,4.059-2.969c1.902,0.293,3.273,2.099,2.973,4.057L618.279,306.447z"/>
	</g>
	
		<radialGradient id="SVGID_5_" cx="928.9585" cy="118.2749" r="27.531" gradientTransform="matrix(1 0 0 -1 -349.9746 367.8154)" gradientUnits="userSpaceOnUse">
		<stop  offset="0" style="stop-color:#FFFFFF"/>
		<stop  offset="1" style="stop-color:#FFFFFF;stop-opacity:0"/>
	</radialGradient>
	<path opacity="0.75" fill="url(#SVGID_5_)" enable-background="new    " d="M551.453,249.543c0-15.207,12.326-27.533,27.533-27.533
		c15.205,0,27.529,12.326,27.529,27.533c0,15.202-12.324,27.529-27.529,27.529C563.779,277.072,551.453,264.746,551.453,249.543z"/>
</g>
</svg>
