<?xml version="1.0" encoding="utf-8"?>
<!-- Generator: Adobe Illustrator 16.0.0, SVG Export Plug-In . SVG Version: 6.00 Build 0)  -->
<!DOCTYPE svg PUBLIC "-//W3C//DTD SVG 1.1//EN" "http://www.w3.org/Graphics/SVG/1.1/DTD/svg11.dtd">
<svg version="1.1" xmlns="http://www.w3.org/2000/svg" xmlns:xlink="http://www.w3.org/1999/xlink" x="0px" y="0px" width="141.7px"
	 height="141.7px" viewBox="0 0 141.7 141.7" enable-background="new 0 0 141.7 141.7" xml:space="preserve">
<g id="guide_1_">
</g>
<g id="insérer" display="none">
	
		<text transform="matrix(1.083 0 0 1 22.7598 108.0044)" display="inline" fill="#00529C" font-family="'HelveticaNeueLTStd-Roman'" font-size="21.04">INSÉRER</text>
	<path display="inline" fill="#00529C" d="M89.183,44.767H52.517c-3.176,0-5.75,2.574-5.75,5.75s2.574,5.75,5.75,5.75h36.667
		c3.176,0,5.75-2.574,5.75-5.75S92.359,44.767,89.183,44.767z"/>
	<path display="inline" fill="#00529C" d="M76.6,68.851V32.184c0-3.176-2.574-5.75-5.75-5.75s-5.75,2.574-5.75,5.75V68.85
		c0,3.176,2.574,5.75,5.75,5.75C74.026,74.6,76.6,72.026,76.6,68.851z"/>
</g>
<g id="connexion" display="none">
	<g id="connexion_1_" display="inline">
		<text transform="matrix(1.083 0 0 1 11.2188 107.9712)" fill="#00529C" font-family="'MyriadPro-Regular'" font-size="21.04">CONNEXION</text>
		<path fill="#00529C" d="M94.393,35.948c-0.164-0.636-0.375-1.252-0.63-1.846c-1.272-2.967-3.638-5.353-6.591-6.648
			c-1.182-0.518-2.457-0.861-3.795-0.997c-0.428-0.043-0.862-0.065-1.303-0.065H59.417c-0.43,0-0.854,0.022-1.273,0.064
			c-0.146,0.014-0.288,0.043-0.434,0.063c-0.269,0.036-0.539,0.07-0.802,0.123c-0.176,0.035-0.347,0.085-0.52,0.128
			c-0.225,0.055-0.45,0.105-0.67,0.172c-0.191,0.058-0.375,0.13-0.562,0.196c-0.194,0.069-0.389,0.134-0.578,0.212
			c-0.199,0.082-0.39,0.176-0.583,0.268c-0.167,0.079-0.336,0.154-0.499,0.24c-0.205,0.108-0.402,0.228-0.601,0.346
			c-0.14,0.084-0.282,0.165-0.418,0.254c-0.208,0.136-0.409,0.282-0.608,0.43c-0.115,0.085-0.232,0.168-0.344,0.257
			c-0.208,0.166-0.408,0.34-0.605,0.518c-0.092,0.083-0.185,0.163-0.273,0.249c-0.206,0.196-0.402,0.4-0.595,0.61
			c-0.069,0.076-0.14,0.15-0.207,0.228c-0.199,0.228-0.388,0.463-0.571,0.704c-0.05,0.067-0.101,0.133-0.15,0.201
			c-0.188,0.259-0.365,0.525-0.534,0.798c-0.034,0.056-0.068,0.111-0.102,0.167c-0.173,0.29-0.334,0.587-0.484,0.891
			c-0.021,0.043-0.042,0.087-0.063,0.131c-0.153,0.32-0.293,0.646-0.419,0.98c-0.012,0.031-0.022,0.062-0.034,0.092
			c-0.129,0.348-0.243,0.702-0.342,1.063c-0.005,0.019-0.009,0.038-0.014,0.057c-0.1,0.374-0.184,0.753-0.25,1.14
			c-0.001,0.007-0.002,0.014-0.003,0.021c-0.067,0.396-0.116,0.798-0.146,1.206c-0.016,0.155-0.047,0.304-0.047,0.463v0.455
			c0,0.002,0,0.004,0,0.006v0.06v0.218v0.741c0,0,0,1.435,0,1.75s0.581,2.774,4.646,2.774s4.645-2.201,4.645-2.774
			c0-0.573,0-1.75,0-1.75V40.03c0-0.003,0.001-0.006,0.001-0.01v-0.836v-0.521c0-0.003-0.001-0.006-0.001-0.01v-2.97H85.52v29.543
			H55.975v-2.97c0-0.003,0.001-0.006,0.001-0.01v-0.521v-0.836c0-0.003-0.001-0.006-0.001-0.01v-0.113v-1.75
			c0,0-0.579-2.774-4.645-2.774s-4.646,2.774-4.646,2.774v1.75v0.741v0.218v0.06c0,0.002,0,0.004,0,0.006v0.455
			c0,0.159,0.031,0.308,0.047,0.463c0.029,0.408,0.078,0.81,0.146,1.206c0.001,0.007,0.002,0.014,0.003,0.021
			c0.066,0.387,0.15,0.766,0.25,1.14c0.005,0.019,0.009,0.038,0.014,0.057c0.099,0.362,0.213,0.716,0.342,1.063
			c0.011,0.031,0.022,0.062,0.034,0.092c0.126,0.334,0.267,0.66,0.419,0.98c0.021,0.044,0.042,0.087,0.063,0.131
			c0.15,0.304,0.311,0.601,0.484,0.891c0.033,0.056,0.067,0.112,0.102,0.167c0.169,0.273,0.346,0.539,0.534,0.798
			c0.049,0.068,0.1,0.134,0.15,0.201c0.183,0.241,0.372,0.477,0.571,0.704c0.067,0.077,0.138,0.152,0.207,0.228
			c0.192,0.209,0.389,0.414,0.595,0.61c0.089,0.085,0.182,0.166,0.273,0.249c0.197,0.177,0.397,0.352,0.605,0.518
			c0.112,0.089,0.229,0.172,0.344,0.257c0.2,0.146,0.4,0.294,0.608,0.43c0.136,0.09,0.278,0.172,0.418,0.256
			c0.198,0.117,0.396,0.236,0.601,0.346c0.163,0.086,0.332,0.16,0.499,0.24c0.193,0.092,0.385,0.186,0.583,0.268
			c0.189,0.078,0.384,0.143,0.578,0.212c0.187,0.065,0.371,0.138,0.562,0.196c0.22,0.066,0.445,0.117,0.67,0.172
			c0.173,0.043,0.344,0.093,0.521,0.128c0.264,0.053,0.533,0.086,0.802,0.122c0.146,0.02,0.287,0.049,0.434,0.063
			c0.419,0.043,0.844,0.064,1.273,0.064h22.66c0.438,0,0.873-0.021,1.301-0.064c5.018-0.51,9.158-3.937,10.735-8.553
			c0.104-0.308,0.198-0.621,0.28-0.938c0.262-1.017,0.416-2.077,0.416-3.176l0,0v-22.66l0,0
			C94.809,38.025,94.655,36.965,94.393,35.948z"/>
		<g>
			<path fill="#00529C" d="M76.267,50.464c0,1.91-1.548,3.458-3.458,3.458H50.058c-1.91,0-3.458-1.548-3.458-3.458l0,0
				c0-1.909,1.548-3.458,3.458-3.458h22.751C74.719,47.006,76.267,48.555,76.267,50.464L76.267,50.464z"/>
			<path fill="#00529C" d="M75.508,51.894c-1.014,1.013-2.654,1.013-3.668-0.001l-6.584-6.584c-1.013-1.013-1.013-2.654,0-3.667l0,0
				c1.013-1.013,2.655-1.013,3.667,0l6.583,6.584C76.52,49.239,76.52,50.881,75.508,51.894L75.508,51.894z"/>
			<path fill="#00529C" d="M75.508,49.015c-1.014-1.013-2.654-1.013-3.668,0.001L65.256,55.6c-1.013,1.013-1.013,2.654,0,3.667l0,0
				c1.013,1.013,2.655,1.013,3.667,0l6.583-6.584C76.52,51.67,76.52,50.028,75.508,49.015L75.508,49.015z"/>
		</g>
	</g>
</g>
<g id="categorie_1_" display="none">
	
		<text transform="matrix(1.083 0 0 1 -0.6528 108.064)" display="inline" fill="#00529C" font-family="'HelveticaNeueLTStd-Roman'" font-size="21.0368">CATEGORIES</text>
	<g display="inline">
		<circle fill="#00529C" cx="52.45" cy="32.092" r="5.7"/>
		<circle fill="#00529C" cx="52.45" cy="48.417" r="5.7"/>
		<circle fill="#00529C" cx="52.45" cy="64.667" r="5.7"/>
		<path fill="#00529C" d="M89.2,26.342H67.224c-3.176,0-5.75,2.574-5.75,5.75s2.574,5.75,5.75,5.75H89.2
			c3.176,0,5.75-2.574,5.75-5.75S92.375,26.342,89.2,26.342z"/>
		<path fill="#00529C" d="M89.2,42.667H67.224c-3.176,0-5.75,2.574-5.75,5.75s2.574,5.75,5.75,5.75H89.2
			c3.176,0,5.75-2.574,5.75-5.75S92.375,42.667,89.2,42.667z"/>
		<path fill="#00529C" d="M89.2,58.917H67.224c-3.176,0-5.75,2.574-5.75,5.75s2.574,5.75,5.75,5.75H89.2
			c3.176,0,5.75-2.574,5.75-5.75S92.375,58.917,89.2,58.917z"/>
	</g>
</g>
<g id="recherche_1_" display="none">
	<path display="inline" fill="#00529C" d="M93.2,67.3L82.6,56.5l-0.9-0.9c1.7-2.9,2.7-6.2,2.7-9.8c0-10.5-8.5-19-19-19
		s-19,8.5-19,19s8.5,19,19,19c3.8,0,7.3-1.1,10.3-3l0.7,0.8L87,73.4c1.699,1.7,4.399,1.7,6.1,0.101C94.799,71.799,94.9,69,93.2,67.3
		z M54.2,45.8c0-6.2,5-11.2,11.2-11.2c6.2,0,11.2,5,11.2,11.2c0,6.2-5,11.2-11.2,11.2C59.2,57,54.2,52,54.2,45.8z"/>
	
		<text transform="matrix(1.083 0 0 1 0.457 108.4751)" display="inline" fill="#00529C" font-family="'HelveticaNeueLTStd-Roman'" font-size="25.9066">RECHERCHE</text>
</g>
<g id="profil">
	
		<text transform="matrix(1.083 0 0 1 31.1855 108.064)" display="none" fill="#00529C" enable-background="new    " font-family="'HelveticaNeueLTStd-Roman'" font-size="21.0368">PROFIL</text>
	<g enable-background="new    ">
		<path fill="#00529C" d="M32.962,93.041h7.131c3.235,0,4.989,1.662,4.989,4.439s-1.754,4.461-4.989,4.439h-4.966v6.145h-2.165
			V93.041z M35.127,100.237h4.237c2.438,0.021,3.554-0.969,3.554-2.757c0-1.789-1.116-2.757-3.554-2.757h-4.237V100.237z"/>
		<path fill="#00529C" d="M47.726,93.041h7.655c3.053,0,4.943,1.535,4.943,3.935c0,1.81-0.866,3.304-2.825,3.809v0.042
			c1.891,0.337,2.278,1.62,2.438,3.093c0.137,1.474,0.045,3.114,0.957,4.146h-2.415c-0.615-0.61-0.273-2.23-0.592-3.703
			c-0.228-1.474-0.615-2.715-2.711-2.715H49.89v6.418h-2.165V93.041z M54.4,99.962c2.028,0,3.759-0.483,3.759-2.672
			c0-1.473-0.866-2.567-2.894-2.567H49.89v5.239H54.4z"/>
		<path fill="#00529C" d="M70.211,92.682c5.172,0,7.791,3.788,7.791,7.87s-2.619,7.869-7.791,7.869
			c-5.171,0-7.791-3.787-7.791-7.869S65.04,92.682,70.211,92.682z M70.211,106.739c3.965,0,5.627-3.156,5.627-6.187
			s-1.662-6.187-5.627-6.187c-3.964,0-5.627,3.156-5.627,6.187S66.248,106.739,70.211,106.739z"/>
		<path fill="#00529C" d="M80.647,93.041h10.684v1.683h-8.52V99.5h7.473v1.684h-7.473v6.881h-2.164V93.041z"/>
		<path fill="#00529C" d="M93.815,93.041h2.164v15.023h-2.164V93.041z"/>
		<path fill="#00529C" d="M99.624,93.041h2.165v13.34h8.611v1.684H99.624V93.041z"/>
	</g>
	<path display="none" fill="#00529C" d="M93.2,67.3L82.6,56.5l-0.9-0.9c1.7-2.9,2.7-6.2,2.7-9.8c0-10.5-8.5-19-19-19s-19,8.5-19,19
		s8.5,19,19,19c3.8,0,7.3-1.1,10.3-3l0.7,0.8L87,73.4c1.699,1.7,4.399,1.7,6.1,0.101C94.799,71.799,94.9,69,93.2,67.3z M54.2,45.8
		c0-6.2,5-11.2,11.2-11.2c6.2,0,11.2,5,11.2,11.2c0,6.2-5,11.2-11.2,11.2C59.2,57,54.2,52,54.2,45.8z"/>
	<path display="none" fill="#00529C" d="M70.85,29.441c-6.865,0-12.43,5.565-12.43,12.43c0,6.866,5.565,12.431,12.43,12.431
		c6.864,0,12.43-5.565,12.43-12.431C83.28,35.006,77.713,29.441,70.85,29.441z M70.85,50.076c-4.532,0-8.205-3.674-8.205-8.206
		c0-4.531,3.673-8.205,8.205-8.205s8.206,3.673,8.206,8.205C79.055,46.402,75.381,50.076,70.85,50.076z"/>
	<g display="none">
		<path display="inline" fill="#00529C" d="M71.251,74.538h23.643c0-7.58-4.566-14.224-11.416-17.938
			c-1.033,5.895-6.081,10.398-12.227,10.588V74.538z"/>
		<path display="inline" fill="#00529C" d="M70.449,67.188c-6.145-0.19-11.193-4.693-12.227-10.589
			c-6.851,3.715-11.416,10.358-11.416,17.939h23.643V67.188z"/>
	</g>
	<path fill="#00529C" d="M70.85,26.35c-6.865,0-12.43,5.565-12.43,12.43s5.565,12.43,12.43,12.43s12.43-5.565,12.43-12.43
		S77.715,26.35,70.85,26.35z M70.85,45.319c-3.611,0-6.539-2.927-6.539-6.539s2.927-6.539,6.539-6.539s6.539,2.927,6.539,6.539
		S74.461,45.319,70.85,45.319z"/>
	<path fill="#00529C" d="M84.866,51.13c-3.426,3.886-8.427,6.35-14.016,6.35c-5.588,0-10.589-2.464-14.016-6.35
		c-6.096,5.002-10.071,13.173-10.071,22.411c0,0.327,0.012,0.651,0.021,0.977h48.129c0.01-0.325,0.021-0.649,0.021-0.977
		C94.936,64.302,90.96,56.131,84.866,51.13z"/>
</g>
</svg>
