<?xml version="1.0" encoding="utf-8"?>
<!-- Generator: Adobe Illustrator 16.0.0, SVG Export Plug-In . SVG Version: 6.00 Build 0)  -->
<!DOCTYPE svg PUBLIC "-//W3C//DTD SVG 1.1//EN" "http://www.w3.org/Graphics/SVG/1.1/DTD/svg11.dtd">
<svg version="1.1" id="Layer_1" xmlns="http://www.w3.org/2000/svg" xmlns:xlink="http://www.w3.org/1999/xlink" x="0px" y="0px"
	 width="50.222px" height="50.222px" viewBox="4.27 4.27 50.222 50.222" enable-background="new 4.27 4.27 50.222 50.222"
	 xml:space="preserve">
<g id="guide_1_">
</g>
<g id="insérer" display="none">
	
		<text transform="matrix(1.083 0 0 1 22.7598 108.0044)" display="inline" fill="#00529C" font-family="'HelveticaNeueLTStd-Roman'" font-size="21.04">INSÉRER</text>
	<g display="inline">
		<path fill="#00529C" d="M89.183,44.767H52.517c-3.176,0-5.75,2.574-5.75,5.75c0,3.176,2.574,5.75,5.75,5.75h36.667
			c3.176,0,5.75-2.574,5.75-5.75C94.934,47.341,92.359,44.767,89.183,44.767z"/>
		<path fill="#00529C" d="M76.6,68.851V32.184c0-3.176-2.574-5.75-5.75-5.75c-3.176,0-5.75,2.574-5.75,5.75V68.85
			c0,3.176,2.574,5.75,5.75,5.75C74.026,74.6,76.6,72.026,76.6,68.851z"/>
	</g>
</g>
<g id="connexion" display="none">
	<g display="inline">
		<text transform="matrix(1.083 0 0 1 0.1416 108.2837)" fill="#00529C" font-family="'MyriadPro-Regular'" font-size="25.054">CONNEXION</text>
		<g>
			<path fill="#00529C" d="M80.4,42.9v-8.2c0-4.6-4.3-8.4-9.6-8.4c-5.3,0-9.6,3.8-9.6,8.4v8.2c-5.6,2.1-9.6,7.4-9.6,13.6v2
				c0,8.1,6.7,14.6,15,14.6H75c8.299,0,15-6.5,15-14.6v-2C90,50.3,86,45,80.4,42.9z M65.7,35.1c0-2.5,2.3-4.5,5.2-4.5
				c2.899,0,5.2,2,5.2,4.5V42c-0.301,0-0.7,0-1,0h-8.3c-0.3,0-0.7,0-1,0v-6.9H65.7z M82.299,62.4c0,1.6-1.6,3-3.6,3H63
				c-2,0-3.6-1.3-3.6-3v-9.9c0-1.6,1.6-3,3.6-3h15.7c2,0,3.6,1.3,3.6,3V62.4L82.299,62.4z"/>
			<path fill="#00529C" d="M74,54.6c0-1.7-1.4-3.2-3.203-3.2c-1.8,0-3.2,1.4-3.2,3.2c0,1.1,0.6,2.1,1.5,2.7v5l0,0l0,0l0,0l0,0
				c0,0.6,0.8,1,1.7,1c0.902,0,1.703-0.5,1.703-1l0,0v-5.1C73.5,56.7,74,55.8,74,54.6z"/>
		</g>
	</g>
</g>
<g id="categorie_1_" display="none">
	
		<text transform="matrix(1.083 0 0 1 -0.6523 108.0649)" display="inline" fill="#00529C" font-family="'HelveticaNeueLTStd-Roman'" font-size="21.0368">CATEGORIES</text>
	<g display="inline">
		<circle fill="#00529C" cx="51.5" cy="32.092" r="5.7"/>
		<path fill="#00529C" d="M60.525,32.042c0,3.1,2.5,5.6,5.6,5.7v0.1H88.5v-0.1c3.101-0.1,5.5-2.6,5.5-5.7s-2.399-5.6-5.5-5.7l0,0
			h-0.199h-0.1H88.1H66.425h-0.1h-0.1h-0.1l0,0C63.025,26.442,60.525,28.942,60.525,32.042z"/>
		<g>
			<circle fill="#00529C" cx="51.5" cy="48.417" r="5.7"/>
			<path fill="#00529C" d="M60.525,48.417c0,3.1,2.5,5.6,5.6,5.7v0.1H88.5v-0.1c3.101-0.1,5.5-2.6,5.5-5.7s-2.399-5.6-5.5-5.7l0,0
				h-0.199h-0.1H88.1H66.425h-0.1h-0.1h-0.1l0,0C63.025,42.817,60.525,45.317,60.525,48.417z"/>
		</g>
		<g>
			<circle fill="#00529C" cx="51.5" cy="64.667" r="5.7"/>
			<path fill="#00529C" d="M60.525,64.667c0,3.1,2.5,5.6,5.6,5.7v0.1H88.5v-0.1c3.101-0.1,5.5-2.6,5.5-5.7s-2.399-5.6-5.5-5.7l0,0
				h-0.199h-0.1H88.1H66.425h-0.1h-0.1h-0.1l0,0C63.025,59.067,60.525,61.567,60.525,64.667z"/>
		</g>
	</g>
</g>
<path display="none" fill="#00529C" d="M93.2,67.3L82.6,56.5l-0.9-0.9c1.7-2.9,2.7-6.2,2.7-9.8c0-10.5-8.5-19-19-19s-19,8.5-19,19
	s8.5,19,19,19c3.8,0,7.3-1.1,10.3-3l0.7,0.8L87,73.4c1.699,1.7,4.397,1.7,6.1,0.101C94.799,71.799,94.9,69,93.2,67.3z M54.2,45.8
	c0-6.2,5-11.2,11.2-11.2c6.2,0,11.2,5,11.2,11.2c0,6.2-5,11.2-11.2,11.2C59.2,57,54.2,52,54.2,45.8z"/>
<path fill="#FFFFFF" d="M52.252,46.029l-10.639-10.86l-0.904-0.905c1.707-2.916,2.711-6.235,2.711-9.855
	c0-10.559-8.532-19.106-19.071-19.106S5.279,13.85,5.279,24.409c0,10.558,8.531,19.106,19.07,19.106
	c3.814,0,7.327-1.106,10.339-3.017l0.701,0.805l10.643,10.859c1.705,1.711,4.414,1.711,6.121,0.104
	C53.858,50.554,53.959,47.739,52.252,46.029z M13.108,24.41c0-6.235,5.02-11.263,11.242-11.263c6.223,0,11.242,5.028,11.242,11.263
	c0,6.234-5.02,11.263-11.242,11.263C18.127,35.672,13.108,30.644,13.108,24.41z"/>
</svg>
