<?xml version="1.0" encoding="utf-8"?>
<!-- Generator: Adobe Illustrator 16.0.0, SVG Export Plug-In . SVG Version: 6.00 Build 0)  -->
<!DOCTYPE svg PUBLIC "-//W3C//DTD SVG 1.1//EN" "http://www.w3.org/Graphics/SVG/1.1/DTD/svg11.dtd">
<svg version="1.1" id="Layer_1" xmlns="http://www.w3.org/2000/svg" xmlns:xlink="http://www.w3.org/1999/xlink" x="0px" y="0px"
	 width="141.7px" height="141.7px" viewBox="0 0 141.7 141.7" enable-background="new 0 0 141.7 141.7" xml:space="preserve">
<g id="guide_1_">
</g>
<g id="insérer" display="none">
	
		<text transform="matrix(1.083 0 0 1 22.7598 108.0044)" display="inline" fill="#00529C" font-family="'HelveticaNeueLTStd-Roman'" font-size="21.04">INSÉRER</text>
	<g display="inline">
		<path fill="#00529C" d="M89.183,44.767H52.517c-3.176,0-5.75,2.574-5.75,5.75c0,3.176,2.574,5.75,5.75,5.75h36.667
			c3.176,0,5.75-2.574,5.75-5.75C94.934,47.341,92.359,44.767,89.183,44.767z"/>
		<path fill="#00529C" d="M76.6,68.851V32.184c0-3.176-2.574-5.75-5.75-5.75c-3.176,0-5.75,2.574-5.75,5.75V68.85
			c0,3.176,2.574,5.75,5.75,5.75C74.026,74.6,76.6,72.026,76.6,68.851z"/>
	</g>
</g>
<g id="connexion" display="none">
	<g display="inline">
		<text transform="matrix(1.083 0 0 1 0.1416 108.2837)" fill="#00529C" font-family="'MyriadPro-Regular'" font-size="25.054">CONNEXION</text>
		<g>
			<path fill="#00529C" d="M80.4,42.9v-8.2c0-4.6-4.3-8.4-9.6-8.4c-5.3,0-9.6,3.8-9.6,8.4v8.2c-5.6,2.1-9.6,7.4-9.6,13.6v2
				c0,8.1,6.7,14.6,15,14.6H75c8.299,0,15-6.5,15-14.6v-2C90,50.3,86,45,80.4,42.9z M65.7,35.1c0-2.5,2.3-4.5,5.2-4.5
				c2.899,0,5.2,2,5.2,4.5V42c-0.301,0-0.7,0-1,0h-8.3c-0.3,0-0.7,0-1,0v-6.9H65.7z M82.299,62.4c0,1.6-1.6,3-3.6,3H63
				c-2,0-3.6-1.3-3.6-3v-9.9c0-1.6,1.6-3,3.6-3h15.7c2,0,3.6,1.3,3.6,3V62.4L82.299,62.4z"/>
			<path fill="#00529C" d="M74,54.6c0-1.7-1.4-3.2-3.202-3.2c-1.8,0-3.2,1.4-3.2,3.2c0,1.1,0.6,2.1,1.5,2.7v5l0,0l0,0l0,0l0,0
				c0,0.6,0.8,1,1.7,1c0.901,0,1.702-0.5,1.702-1l0,0v-5.1C73.5,56.7,74,55.8,74,54.6z"/>
		</g>
	</g>
</g>
<g id="categorie_1_" display="none">
	
		<text transform="matrix(1.083 0 0 1 -0.6523 108.0649)" display="inline" fill="#00529C" font-family="'HelveticaNeueLTStd-Roman'" font-size="21.0368">CATEGORIES</text>
	<g display="inline">
		<circle fill="#00529C" cx="51.5" cy="32.092" r="5.7"/>
		<path fill="#00529C" d="M60.525,32.042c0,3.1,2.5,5.6,5.6,5.7v0.1H88.5v-0.1c3.101-0.1,5.5-2.6,5.5-5.7s-2.399-5.6-5.5-5.7l0,0
			h-0.199h-0.1H88.1H66.425h-0.1h-0.1h-0.1l0,0C63.025,26.442,60.525,28.942,60.525,32.042z"/>
		<g>
			<circle fill="#00529C" cx="51.5" cy="48.417" r="5.7"/>
			<path fill="#00529C" d="M60.525,48.417c0,3.1,2.5,5.6,5.6,5.7v0.1H88.5v-0.1c3.101-0.1,5.5-2.6,5.5-5.7s-2.399-5.6-5.5-5.7l0,0
				h-0.199h-0.1H88.1H66.425h-0.1h-0.1h-0.1l0,0C63.025,42.817,60.525,45.317,60.525,48.417z"/>
		</g>
		<g>
			<circle fill="#00529C" cx="51.5" cy="64.667" r="5.7"/>
			<path fill="#00529C" d="M60.525,64.667c0,3.1,2.5,5.6,5.6,5.7v0.1H88.5v-0.1c3.101-0.1,5.5-2.6,5.5-5.7s-2.399-5.6-5.5-5.7l0,0
				h-0.199h-0.1H88.1H66.425h-0.1h-0.1h-0.1l0,0C63.025,59.067,60.525,61.567,60.525,64.667z"/>
		</g>
	</g>
</g>
<path display="none" fill="#00529C" d="M93.2,67.3L82.6,56.5l-0.9-0.9c1.7-2.9,2.7-6.2,2.7-9.8c0-10.5-8.5-19-19-19s-19,8.5-19,19
	s8.5,19,19,19c3.8,0,7.3-1.1,10.3-3l0.7,0.8L87,73.4c1.699,1.7,4.398,1.7,6.1,0.101C94.799,71.799,94.9,69,93.2,67.3z M54.2,45.8
	c0-6.2,5-11.2,11.2-11.2c6.2,0,11.2,5,11.2,11.2c0,6.2-5,11.2-11.2,11.2C59.2,57,54.2,52,54.2,45.8z"/>
<g>
	<g enable-background="new    ">
		<path fill="#00529C" d="M2.766,92.947h7.655c3.053,0,4.943,1.536,4.943,3.935c0,1.811-0.866,3.304-2.825,3.809v0.043
			c1.891,0.336,2.278,1.619,2.438,3.093c0.137,1.473,0.046,3.114,0.957,4.146h-2.415c-0.615-0.611-0.273-2.23-0.592-3.703
			c-0.229-1.474-0.615-2.715-2.711-2.715H4.931v6.418H2.766V92.947z M9.441,99.87c2.028,0,3.76-0.484,3.76-2.672
			c0-1.474-0.866-2.567-2.894-2.567H4.931v5.239H9.441z"/>
		<path fill="#00529C" d="M18.375,92.947h11.231v1.684H20.54v4.776h8.451v1.684H20.54v5.197h9.135v1.684h-11.3V92.947z"/>
		<path fill="#00529C" d="M43.734,97.471c-0.456-2.125-2.302-3.199-4.557-3.199c-3.873,0-5.513,2.946-5.513,6.082
			c0,3.43,1.64,6.291,5.535,6.291c2.848,0,4.488-1.852,4.693-4.334h2.164c-0.41,3.744-2.938,6.018-7.039,6.018
			c-5.058,0-7.519-3.451-7.519-7.828c0-4.355,2.688-7.912,7.7-7.912c3.395,0,6.197,1.684,6.698,4.883H43.734z"/>
		<path fill="#00529C" d="M48.749,92.947h2.165v6.46h8.565v-6.46h2.164v15.024h-2.164v-6.881h-8.565v6.881h-2.165V92.947z"/>
		<path fill="#00529C" d="M65.2,92.947h11.231v1.684h-9.066v4.776h8.451v1.684h-8.451v5.197H76.5v1.684H65.2V92.947z"/>
		<path fill="#00529C" d="M79.122,92.947h7.655c3.053,0,4.943,1.536,4.943,3.935c0,1.811-0.866,3.304-2.825,3.809v0.043
			c1.891,0.336,2.278,1.619,2.438,3.093c0.137,1.473,0.046,3.114,0.957,4.146h-2.415c-0.615-0.611-0.273-2.23-0.592-3.703
			c-0.229-1.474-0.615-2.715-2.711-2.715h-5.285v6.418h-2.165V92.947z M85.796,99.87c2.028,0,3.76-0.484,3.76-2.672
			c0-1.474-0.866-2.567-2.894-2.567h-5.376v5.239H85.796z"/>
		<path fill="#00529C" d="M106.167,97.471c-0.456-2.125-2.301-3.199-4.557-3.199c-3.872,0-5.513,2.946-5.513,6.082
			c0,3.43,1.641,6.291,5.536,6.291c2.848,0,4.487-1.852,4.692-4.334h2.165c-0.41,3.744-2.939,6.018-7.04,6.018
			c-5.058,0-7.518-3.451-7.518-7.828c0-4.355,2.688-7.912,7.7-7.912c3.395,0,6.196,1.684,6.697,4.883H106.167z"/>
		<path fill="#00529C" d="M111.181,92.947h2.165v6.46h8.565v-6.46h2.164v15.024h-2.164v-6.881h-8.565v6.881h-2.165V92.947z"/>
		<path fill="#00529C" d="M127.633,92.947h11.231v1.684h-9.067v4.776h8.452v1.684h-8.452v5.197h9.136v1.684h-11.3V92.947z"/>
	</g>
	<path fill="#00529C" d="M93.721,67.076l-10.639-10.86l-0.904-0.905c1.707-2.916,2.711-6.235,2.711-9.855
		c0-10.559-8.532-19.106-19.071-19.106s-19.07,8.547-19.07,19.106c0,10.558,8.531,19.106,19.07,19.106
		c3.814,0,7.327-1.106,10.338-3.017l0.702,0.805L87.5,73.209c1.705,1.711,4.414,1.711,6.121,0.104
		C95.327,71.601,95.428,68.786,93.721,67.076z M54.577,45.457c0-6.235,5.02-11.263,11.242-11.263s11.242,5.028,11.242,11.263
		c0,6.234-5.02,11.263-11.242,11.263C59.596,56.719,54.577,51.691,54.577,45.457z"/>
</g>
</svg>
